<svg xmlns="http://www.w3.org/2000/svg" viewBox="0 0 841.9 595.3"><defs><style>.cls-1{fill:#dc5b12;}</style></defs><title>canguro</title><g id="canguro"><path class="cls-1" d="M248.1,455.3c-.9-3.6,3.3-5.1,3.3-8.4-2.5-1.6-7,1.4-7.7-1.6s2.8-6.1,5.8-8c19.4-13,35-30.4,53.8-44,9-6.5,12.4-14.6,10.8-25.7a213.5,213.5,0,0,0-9.1-37.9c-1.2-3.3-3.1-4.7-6.7-5.5-7.7-1.7-14.3-4.8-17.1-13.8s-8.3-14.7-14-21.1c-2.9-3.1-6-4.2-10-3-15.5,4.5-31.3,3.1-47,3.1-6.5,0-12-3.6-16.9-7.2-6.9-5.1-14.6-7.8-22.6-9.9s-13.2.5-18.6,4.6-11.6,7.1-19,5.5c-4.4-.9-7.9,2.3-11.8,3.5-9,2.8-11.9,2-17.4-5.7-4.3-5.9-4.6-10.3,1.6-16.5,10.5-10.7,17.1-25.3,31.2-32.5a8.3,8.3,0,0,0,3.2-3.7c6.4-12.3,15.7-22.4,23.8-33.4,3.8-5.1,9.4-4,12.2,1.8s4.9,14.5,2.9,22.5c-.6,2.3-3.3,5.6-.5,7.3s8.2,2.8,11.3.7c7.1-4.8,15-8.2,21.7-14.1,13.8-12.2,24.3-27,36.1-40.8,9.8-11.6,23.5-17.9,37.1-24.3s27.9-6.9,42.3-8.5c17-2,32.4,1.6,47.6,9.9,17.9,9.7,36.5,18.2,51.8,31.7,22.8,20.2,46.7,39,72.4,55.5,24.1,15.5,47.4,32.4,73.4,45,17.9,8.7,36.1,16.6,54.5,24.3s39.6,12,60.2,13.7c18.4,1.5,36.8-1.9,55-5,6.3-1.1,12.6-2.3,18.9-3.3,2.4-.4,4.6.1,6,2.3s0,4.3-1.4,6.2c-3.2,4.2-7.8,6.2-12.5,7.8-37.6,13.4-75.6,15.2-114.8,6A396.7,396.7,0,0,1,549,300c-10.7-5.4-21.1-11.6-31.3-17.9-19.2-11.9-39.2-22.4-59.3-32.6-7.9-3.9-16.2-6.4-24.5-8.9s-9.5-.6-12.7,6.3c-4.8,10.7-14.5,16-24.5,20.7-3.9,1.9-7.9,3.8-12.4,3.9s-9.7,3.2-13.4,7.5c-17,19.7-25.2,42.2-23.5,68.3a234.9,234.9,0,0,0,3.2,27.7c1.1,5.6-1.5,9.8-4.6,14.6-8.3,12.8-23.7,16.9-32.5,28.3-7.3,9.4-15.9,17.3-24.8,24.9-2.7,2.3-5.5,2.6-9,3-9.9.9-19.2,4.3-28.3,8.3C250.4,454.6,249.6,455.8,248.1,455.3Z"/></g></svg>