<svg id="dibujo" xmlns="http://www.w3.org/2000/svg" viewBox="0 0 841.9 595.3"><defs><style>.cls-1,.cls-2,.cls-5{fill:none;}.cls-1,.cls-2,.cls-4{stroke:#1d1d1b;}.cls-1,.cls-2,.cls-4,.cls-5{stroke-miterlimit:10;}.cls-1{stroke-width:3px;}.cls-3{fill:#1d1d1b;}.cls-5{stroke:#000;}</style></defs><title>dibujo</title><polygon class="cls-1" points="438.3 282.8 525.7 282.8 525.7 244.8 289.3 244.8 289.3 363 525.7 363 525.7 325.1 438.3 325.1 438.3 282.8"/><circle class="cls-1" cx="387.2" cy="302.3" r="30.2"/><line class="cls-2" x1="289.3" y1="243.2" x2="289.3" y2="170.9"/><line class="cls-2" x1="523.7" y1="243.2" x2="523.7" y2="170.9"/><line class="cls-2" x1="289.3" y1="185.2" x2="523.7" y2="185.2"/><line class="cls-2" x1="387.2" y1="243.2" x2="387.2" y2="196.8"/><line class="cls-2" x1="387.2" y1="210.3" x2="523.7" y2="210.3"/><line class="cls-2" x1="286.8" y1="301" x2="252.2" y2="301"/><line class="cls-2" x1="286.8" y1="363" x2="252.2" y2="363"/><line class="cls-2" x1="269.5" y1="301" x2="269.5" y2="363"/><polyline class="cls-2" points="437.9 280.9 437.9 236.9 437.9 226.7"/><line class="cls-2" x1="523.7" y1="233.7" x2="437.9" y2="233.7"/><line class="cls-2" x1="529.4" y1="244.8" x2="598.6" y2="244.8"/><line class="cls-2" x1="529.4" y1="363" x2="598.6" y2="363"/><line class="cls-2" x1="583" y1="244.8" x2="583" y2="363"/><line class="cls-2" x1="528.3" y1="282.2" x2="569.4" y2="282.2"/><line class="cls-2" x1="557.2" y1="282.2" x2="557.2" y2="363"/><polyline class="cls-2" points="528.3 325.5 536.5 325.5 544.7 325.5"/><polygon class="cls-3" points="296.4 185.2 289.3 185.2 296.4 180.8 296.4 184.6 296.4 185.2"/><polygon class="cls-3" points="394.3 210.3 387.2 210.3 394.3 206 394.3 209.8 394.3 210.3"/><polygon class="cls-3" points="444.9 233.7 437.9 233.7 444.9 229.3 444.9 233.1 444.9 233.7"/><polygon class="cls-3" points="583 251.9 583 244.8 587.3 251.9 583.6 251.9 583 251.9"/><polygon class="cls-3" points="557.2 289.2 557.2 282.2 561.5 289.2 557.7 289.2 557.2 289.2"/><polygon class="cls-3" points="536.5 332.6 536.5 325.5 540.8 332.6 537 332.6 536.5 332.6"/><polygon class="cls-3" points="516.6 185.2 523.7 185.2 516.6 180.8 516.6 184.6 516.6 185.2"/><polygon class="cls-3" points="516.6 210.3 523.7 210.3 516.6 206 516.6 209.8 516.6 210.3"/><polygon class="cls-3" points="516.6 233.7 523.6 233.7 516.6 229.3 516.6 233.1 516.6 233.7"/><polygon class="cls-3" points="583 356 583 363 587.3 356 583.6 356 583 356"/><polygon class="cls-3" points="557.2 356 557.2 363 561.5 356 557.7 356 557.2 356"/><polygon class="cls-3" points="536.5 356 536.5 363 540.8 356 537 356 536.5 356"/><polygon class="cls-3" points="269.5 356 269.5 363 265.2 356 268.9 356 269.5 356"/><polygon class="cls-3" points="269.5 307.5 269.5 300.4 265.2 307.5 268.9 307.5 269.5 307.5"/><path d="M450.5,207.8a3.5,3.5,0,0,0,1.8.5,1.7,1.7,0,0,0,1.9-1.6A1.9,1.9,0,0,0,452,205h-.6v-.8h.6c.8,0,1.9-.4,1.9-1.4s-.5-1.2-1.5-1.2a2.5,2.5,0,0,0-1.6.5l-.3-.8a3.7,3.7,0,0,1,2.1-.6c1.7,0,2.4.9,2.4,1.9a2.1,2.1,0,0,1-1.5,2h0a2.1,2.1,0,0,1,1.8,2.1c0,1.3-1,2.5-3,2.5a4.4,4.4,0,0,1-2.2-.6Z"/><path d="M457,207.8a3.5,3.5,0,0,0,1.8.5,1.7,1.7,0,0,0,1.9-1.6c0-1.2-1.1-1.7-2.2-1.7h-.6v-.8h.6c.9,0,1.9-.4,1.9-1.4s-.4-1.2-1.5-1.2a2.5,2.5,0,0,0-1.6.5l-.3-.8a4,4,0,0,1,2.1-.6c1.7,0,2.4.9,2.4,1.9a2.1,2.1,0,0,1-1.5,2h0a2.1,2.1,0,0,1,1.8,2.1c0,1.3-1,2.5-3,2.5a3.7,3.7,0,0,1-2.1-.6Z"/><path d="M478.5,225.1h0l-1.4.7-.2-.8,1.8-1h.9v8.3h-1.1Z"/><path d="M488,224v.8l-3.6,7.5h-1.2l3.6-7.3h-4V224Z"/><path d="M261,335h0l.8,1.4-.9.2-1-1.8V334h8.3v1Z"/><path d="M260.9,326v3.2l2.1.3v-.7a3.7,3.7,0,0,1,.4-1.8,2.5,2.5,0,0,1,2.1-1.2,2.9,2.9,0,0,1,2.8,3.1,3.8,3.8,0,0,1-.5,2.1l-.8-.3a3.7,3.7,0,0,0,.4-1.8,1.7,1.7,0,0,0-1.7-1.9c-1.1,0-1.9.7-1.9,2.4s.1.8.1,1.1l-4-.5v-4Z"/><path d="M586,296.6a3.5,3.5,0,0,0-.5,1.8,1.7,1.7,0,0,0,1.6,1.9c1.1,0,1.6-1.1,1.6-2.2v-.6h.9v.6c0,.9.4,1.9,1.4,1.9s1.2-.4,1.2-1.5a3.4,3.4,0,0,0-.5-1.6l.8-.3a4.1,4.1,0,0,1,.6,2.2,2,2,0,0,1-2,2.3,2.1,2.1,0,0,1-1.9-1.5h0a2.2,2.2,0,0,1-2.2,1.8c-1.3,0-2.4-1-2.4-3a4.9,4.9,0,0,1,.5-2.1Z"/><path d="M588.9,308.3c-2.8,0-4.3-1-4.3-2.8s1.5-2.8,4.2-2.8,4.3,1.2,4.3,2.9S591.6,308.3,588.9,308.3Zm-.1-4.5c-2.2,0-3.4.7-3.4,1.7s1.4,1.7,3.5,1.7,3.3-.5,3.3-1.7S591,303.8,588.8,303.8Z"/><path d="M540,341.5a2.4,2.4,0,0,1,2.2,1.6h0a2.1,2.1,0,0,1,1.9-1.3,2.3,2.3,0,0,1,2.2,2.6,2.1,2.1,0,0,1-4,1h0a2.4,2.4,0,0,1-2.2,1.7,2.6,2.6,0,0,1-2.4-2.8C537.7,342.5,538.8,341.5,540,341.5Zm0,4.4c1,0,1.5-.7,1.8-1.8a1.9,1.9,0,0,0-1.7-1.5,1.6,1.6,0,0,0-1.6,1.7A1.5,1.5,0,0,0,540,345.9Zm4.1-3c-.8,0-1.2.6-1.5,1.5s.8,1.3,1.5,1.3a1.4,1.4,0,0,0,0-2.8Z"/><path d="M558.3,315.5h.7l.9.8c2,2.1,3,3.1,4.3,3.1a1.5,1.5,0,0,0,1.6-1.6,3,3,0,0,0-.7-1.8l.8-.3a3.2,3.2,0,0,1,.8,2.3,2.3,2.3,0,0,1-2.4,2.5c-1.5,0-2.7-1.1-4.4-2.8l-.6-.7h0v3.7h-1Z"/><path d="M558.3,322h.7l.9.9c2,2.1,3,3,4.3,3a1.5,1.5,0,0,0,1.6-1.6,3,3,0,0,0-.7-1.8l.8-.3a3.6,3.6,0,0,1,.8,2.3,2.3,2.3,0,0,1-2.4,2.5c-1.5,0-2.7-1.1-4.4-2.8l-.6-.7h0v3.8h-1Z"/><path d="M404.4,176.5h-.9a3.3,3.3,0,0,0-2.8,3h0a2.6,2.6,0,0,1,2-1,2.5,2.5,0,0,1,2.5,2.7,2.8,2.8,0,0,1-2.8,2.9c-1.7,0-2.9-1.4-2.9-3.5a5.2,5.2,0,0,1,1.4-3.7,4.9,4.9,0,0,1,2.7-1.3h.8Zm-.3,4.8a1.7,1.7,0,0,0-1.8-1.9,2,2,0,0,0-1.6,1,4.3,4.3,0,0,0-.1.5c0,1.3.7,2.3,1.8,2.3A1.7,1.7,0,0,0,404.1,181.3Z"/><path d="M411.7,179.7c0,2.9-1.1,4.4-2.9,4.4s-2.7-1.5-2.7-4.2,1.2-4.3,2.8-4.3S411.7,177.1,411.7,179.7Zm-4.5.2c0,2.1.6,3.3,1.7,3.3s1.6-1.3,1.6-3.4-.5-3.4-1.6-3.4S407.2,177.6,407.2,179.9Z"/><path d="M322.1,390.3v-.7l.9-.8c2.1-2,3.1-3.1,3.1-4.4a1.5,1.5,0,0,0-1.7-1.6,2.9,2.9,0,0,0-1.7.7l-.4-.8a4.3,4.3,0,0,1,2.4-.8,2.3,2.3,0,0,1,2.5,2.4c0,1.5-1.1,2.8-2.8,4.4l-.7.6h3.7v.9Z"/><path d="M334.1,386.1c0,2.8-1,4.3-2.8,4.3s-2.7-1.5-2.8-4.2,1.2-4.3,2.9-4.3S334.1,383.5,334.1,386.1Zm-4.4.1c0,2.2.6,3.4,1.6,3.4s1.7-1.4,1.7-3.5-.5-3.3-1.6-3.3S329.7,384,329.7,386.2Z"/><line class="cls-4" x1="536.5" y1="325.5" x2="536.5" y2="363"/><polyline class="cls-5" points="368.3 325.8 306.5 387.7 320.5 387.7"/></svg>