<svg xmlns="http://www.w3.org/2000/svg" viewBox="0 0 841.9 595.3"><defs><style>.cls-1{fill:#ccc;stroke:#fff;stroke-width:0.5px;}</style></defs><title>mapa</title><g id="mapa"><path id="divider" class="cls-1" d="M541.4,406H389.8l-57.5,97.1h-3.5L386.2,406H254.4v-2.5h287Z"/><path id="ES-A" class="cls-1" d="M463.1,271.3l2.6,1.7,2.7-.9,3.1,2.5,3-1.9-2.1-.9v-1.1h2.9l4.4-2.7,2.1,1,1.9-1.2.4,1,2.1-1,.9,1v-.9h0l6.4,2.8.9,2.4-3.7,2.2-.3,1.3-3,.4-1.9,3.3-1.3-.4L478,283l-.7,3.1-1.1-.4-2.1,2.5.3,3.1-2.8.9-.9,5.9-3.1,5.2h0l-3.7-2.6-3.5-5.9,1.7-6-.6-1.7-2.5-.8-.3-3.2,2.1-2-.3-5.4h0l3-1.4-1.2-2.7Z"/><path id="ES-AB" class="cls-1" d="M447.6,249.3l1.4.7v1.3l1.1-.7,2.1,1.6,4.6.9L454,262l3.3,4.2,5-.5.8,5.6h0l-.8.3,1.2,2.7-3,1.4h0l-4.2-3.4-4.3,2.6-1.6-.5-2.6,5.5.5,5.3-2.9,2.3h-2.2l-.5-1.8-1.5-.5-4.4,2.8-3.8-.3-4.5,3.6-3.4,6h0l-5.7-2h0l2.9-3.4-1-7.3-2.4-.5-.6-3.4-2.1.5-2.4-1.2h0v-3.3l2.6-.7.8-3-2.5-1.6-.8-3.4-3.3-2,2-2.9-.9-3.8,3.2-4.6-.5-1.8h0l6.2-.8,3.7,3.8,1.4-1.8.9,2,3.3-1.9,3.1.5-1.2-3.2,2,.2.9,2,5.9.5Z"/><path id="ES-AL" class="cls-1" d="M428.7,300.9l6.3,1.7-1,5.6.9,2.8,3.6,5.6,2.9.4,2.9,2.3h0l-4.7,5.1-2.5,9.2-2.6,1.9-.3,1.9-3.2,3.5-1.9.4-4.5-4.1-1.8,1.1-1.5-.8-2.2.6-3.7,4.4-4-.4-2-1.9h-5.5l-.3-1.3,3-1.9-1.1-2.4,2.5-2-1.4-4.6,2.1.5,2.8-6.1,5,2.3.7-6.2,4.8-3.9,2.6-.4-.8-3.7,2,.3.6-8.6Z"/><path id="ES-AV" class="cls-1" d="M350.1,189.1l3.7-1.1,3.4,2.4,3.8-2h0l.2,3.1,4,3.8.9,3.5-.7.6,1.7.3,1.7,3.2.3,3.8,2.7-.5h0l1.7-.2-.5-.8h0l3.1-.5h0v2.4l-2.2.7-1.3-.9-.8,7.7-2.7.2-.9,3-2.5-.8.5,1.8-1.4,2.6h0l-2,.7-1.2-3-2.8.3v1.4l-4,4-1.6.3v-1.6l-4.1,2.6-4.5-1.1h0l-.8-1.7.6-3.5-5,2.4-5.6-3.5h0l1.8-1.9-.5-2.6,1.5-1.4,2-.5-.4,1.1,1.3.8.4-1.5h1.2l1.1-3.2-2.6.5.2-1.6,1.8.2,1.8-1.4v-1.8l6-5.1,2-6.4-1.7-2.4Z"/><path id="ES-B" class="cls-1" d="M537.8,146.8l1.6-.6,4.5,1.2-1.4,2.1,1.2,2-1.5.5v-1.1l-1.1-.2,1.1,1.8,3.2,1.3,3.9-1.1.7,1.5,1.9-.7,1.4,2.1h1.9l.3,2.4-1.9,1.1,1.4,1.9-2.7,1.6-1.4-.4.6,2.7,2.3.2,3,3,3-1,3.2.4v3.1h0l-13.8,6.9-4.1,6-12.6,3.4h0v-1.4l-1.9-.9,1.3.2.5-1.5H531l-1.4-3.3-1.7.2.3-3.4-2.4-1.4,1.5-2-1.6-.2h0l.4-.9-1.3-.5,2.4-1.1-1.8-2.2,1.2-.9-.3-2.3,1.5-.2-.3.9,1.2-.4.7,1.2,1.7-.9,1-2.9-1.7-.7,2.3-1.8v-1.8l1.9-.2-.6-1.1v1.1l-1.3-.6,1.4-1-.7-1.1,1.3-1.2-.7-1.6,1.1-1.5-1.5-1,.6-1.1-.9-1.7Z"/><path id="ES-BA" class="cls-1" d="M361.9,248.2l-.5,4.3-1.5.2,3,5.4-4.3-1.2-1.7,3.5,1.1,1.8-3.5-.4,1.2,3.5,2.3.7-.4,1.9-1.8-.2-.8,1.1-1.2,4-1.6.3h0l-3.7.4v2l-3.4,2.8-1.6-.2-1.3,2.5-4,2.7-.2,3.5,1.4,4.2-1.7,2.6h0l-1.3-.2-2.1,1.9-.8-1.5,1.6-1.1-.3-1-4.3.5-2,2.3.5,1.4-1.2,2.3-4.4.5-1.7,1.4h0l-6.3-4h-1l-.4,1.5-3.1-.3-1.1-2.6h-3.7l-1.5-.9.5-2-3.7-1h0l-4.1,1.3-5.2-8.5-1.5-.6,2.4-6.5-.4-3.4,6-4.8-.4-1.5,2.7-4-2-3.2-3.2.2.3-2.1-2.9-1.3.3-2.4h0l.7.4,2.3-4.1,1.5.4-1.1.6.6,1.5,1-.5,1-2.1-1.6-.9.5-.8,4.5,1.9,2.1-.3,1.5,2.4-1.4,2.8.9,1.8,3.6-.3,2.5,1.4v-.9l4.3.7,1.4-.8.9,3,4.1,2.3,3.3-3.4.3,2.7,1.8-2,.5.9,3.1-2.1,3.2,2.1,2.3-.6.8-1.7-1-1.3,1.7-1,3.6,2.1,1.8-2.9.2-3.2,2.5,1.1,3.4-1.2.2-1.8,1.6.9,2.8-1.2h.3l1.9,1,3.1-1.7h0Z"/><path id="ES-BI" class="cls-1" d="M414,104.7l1.9,3.4v-1.7l1.1-.2,6.2,3.5h0l-.7,2.9-1.6.8V118l-1.2.3h0l-3.1.5.7,2-3.6-.3-3.4-.7-2.1-1.8,1-1.5-1.2-2.4-2.6,2-1.8-.5h0l-3-1.4-4.4,2.4h0l-.8-3.8,3.1-2.4h4.7v-1.9h0l1.4-.4,2.3,1.4-.5-1.7,2.4-1.4v-.9ZM399.1,112h1.5l-.4,1.9h-.9Z"/><path id="ES-BU" class="cls-1" d="M411.9,129.1v.3h0l7.2.8-1.3,2.4.8,1.1,1.5-.6.2,1.4-6.8-.8-2.7-2.7.9-2h.1Zm-15.8-12.5,4.4-2.4,3,1.4h0l-1,1.5,1.2.8-.2,2.5-.9.3,3.1.7,2.2,2.4-2.9,1.4-3.7-1.9-1.5,2.8,2,1.7.4-1.5,2.1-.7-.9,4.8,2.6-.3,5.2,4.7h-6.1l.7,1.9-2,1.7,1.7.5-.7,1.4,1.3,1.6-.3,2.7-1.1-1.7,1,2.2-1.3.2.6,3.8-1.1,1.7,2.6,4.1h2.7l.5,2.3h0l-2.8,4.9-2.1.2-2,3.2-3.1-3.3.3,4.2-2.1,1.1-2.9,5.3-1.9-.8-.3,1.2h0l-3.5.6-1.5,1.6-.3,2.4-.8-3.2-1.5,2.1-4.2-3.7h0l-2.6-5.1,1-1.5h0l-1.3-3.7,2.9-1.1v-1.1l2.4-.9V158l-3.8,1.6,1.3-3.5-2.6.5-.6-1.8,1.2-.5-4-1.2.5-1.5-1.2-1.2-1.1-6.4-1.3.2-.4-1.5.5-1.4h2l-1.6-3.6,1.1-2.3-.8-2.7,5.7-2.5h0l.9-.2h1.3l4.9-1.5-.5-2.5-.8-.4-.4,1.4-1.2-1.4,2.3-1.9-1.3-.3-1.2,1.8-1.6-1.1,1.2-2.8,2.6-1.3v-1.6H387l2.9-3.5,1.3,1.1ZM378.7,152v1.2h0l-1.3-1h0Z"/><path id="ES-C" class="cls-1" d="M281,92.3l.8.6-1.2,2.4h0l.4,2.1-1.2,1.2-1.2,6.4-1.1,1.8h-1.9v2.3l-1.6,1.9,1.1,12.3-2.5,3.7h0l-1.2.7-3.8-1.1-2.5,1.8-1.7-1,.2,1.7h-1.6l-.4,1.3-4-.2-1.4,1.6-2.9.4-.3,1h0l-2.1,1.5-1.2-1.1-.2,2.2-1.2-1.3-.5,2-3.5,2.6.4-1.6-1.5-.6,1.5-4.4,3.9-3.1v-1.3l-1.9,1.4-2.9-.3-.7,1.9-1.7-2.4,1.3-1.1-1.8-4.1-.4,1-1.2-.9-1.1,2.2-.7-1.5,1-2.9-1-2.1,3.6-1.7V116l-.7,1-.6-1.5,2-1.4,2.1.7,1.3-1.9,2.2.5-1.6-2,4.1-2.6,3.4,2.1,4.8-1,3.6-2.8.5,1.9.9-.3-.2-1.5,1.3-.6,2.6,2.9.6-3.6-3.4-.8,3.1-.5,1.3-2-1.3,1.3-3.8.8,1.3-2.8-.8-1.2,1.6.3,4.6-4.1,1.1,1.3-.3-2.7h1.7l2.5-2.4h1l.5,2.1-1.2,1.7h1.3l-.2-1.2,1.3.2-.6-.5Z"/><path id="ES-CA" class="cls-1" d="M317.6,335.3l11.9,1.9,1.2-2.5h3.5l1.3-1.9,3.6,2.8-.3-1.3,2-1.8-.7-1.8,1.9-.2-.3,3.7,3.7-3.5,1.8,3.3,2.5-2.1h0l1.5,3.3-1.3,2.2-4.5-1-1.1,1.6,1.4,1.5-.9,3.4-3.6,1.8-1.8,3-2.4-.4v1l2.3.5.8-1.3h1.7l3,7,1.8.4h0l-2.3,5.2-2.7-.3.2,3.1-4.7,2-2.3-1.9-2.9-.3-3-3.5h-3.4l-7.3-11.7.9-.2,1.2,2.5,1.5-2-1.9.5.4-2.7-4.3-1.3-1.3-3,2.4-2.7h0Z"/><path id="ES-CC" class="cls-1" d="M303.2,219.5l3,1.2,1-1.1.8.9,2.7-1,1.4-2.7,8.2-4.9,3.1,1.6-.3.8,1.7.8-1.1,1.4,2.4.6,1.3,1.8,1.4.4.9-1.7,2.3-1V219l1.5-.3h0l5.6,3.5,5-2.4-.6,3.5.8,1.7h0l-.9.5-1,7.8,2.2-.5,1.1,1-.6,3.6,1.4.3L349,236l.8,3-1.9,4.1,6.9,7h0l-2.8,1.2-1.6-.9-.2,1.8-3.4,1.2-2.5-1.1-.2,3.2-1.8,2.9-3.6-2.1-1.7,1,1,1.3-.8,1.7-2.3.6-3.2-2.1-3.1,2.1-.5-.9-1.8,2-.3-2.7-3.3,3.4-4.1-2.3-.9-3-1.4.8-4.3-.7v.9l-2.5-1.4-3.6.3-.9-1.8,1.4-2.8-1.5-2.4-2.1.3-4.5-1.9-.5.8,1.6.9-1,2.1-1,.5-.6-1.5,1.1-.6-1.5-.4-2.3,4.1-.7-.4h0l-2.2-2.2.4-4.1-2.3-1.1-4.3-6,5.6.8,8.6-1,.8-4.9,2.2-2.1,1.1-5-2.1-3.5-1.9-.5-.5-2.1.9-1.7Z"/><path id="ES-CE" class="cls-1" d="M269,446.4l-2.6,2.8-1.6-1.1-1.7.7-1.4-1.9-3.3-1.3-1.3-8.1-1.4-2.4.9-1.3,3.9-.7,4.7,3.3,3.4,4.9,3.1-2.4.2,1.6,3.3,2.7,3.1-1.2.5-2.7,2.9-2.6,1.7,2.3h1.2l-.2,2.2-2,1.6-5.5,2.1-3.5-1-2.4,3Z"/><path id="ES-CO" class="cls-1" d="M352.6,310.2l.4,1.7-1.8-1.9Zm-.4-37.1,1.2,1.2,3.4.3.5,2.5,4.1,1.4,6.8,5.9,5,1.8h0l1.6,1.6,1.3,5.3-3.3,4.2V305l2.2.6-.9,2,2,1.3-1.5,2,4.3,3.9-.7.7,2.3,2.8h-2.3l-1.9,2.1-2.1.2-.5,3.6-2,1.5h0l-1.5-3.1h-1.6l-2.6,2.3h-1.7l-.3-1.6h-1.1l-.9-2.9-2.5.4-1.6-3.6h-1.2l-1.7-2.8.4-3.2-1.1.6.5-1.8-1.2-1.9h-2v1.6l-1.6-1.3.6,1.2-1.9-.6-4.8,3.2-1.5-3.3,2.8-.5v-2.6l-7.4-12.1h0l1.7-2.6-1.5-4.2.2-3.5,4-2.7,1.3-2.5,1.7.2,3.3-2.8v-2Z"/><path id="ES-CR" class="cls-1" d="M355.1,250.1l2.1-5.6,3,1.9v3h0l-3.1,1.7Zm6.8-1.9h1.9l2.5-3.8,1.7,2.9.5-1.5,5.4,1.6,1.3-.6.9-2.9h3.2l.3,1.8h-.8l-.2,2.3h-1.4l-.8,3.3,4.8.3.2,1.9,2.9,1.4,1.7-1.2,1.9.8,5.1-1.2,3.3-3.5,2.7.2.4-2.5,4.1-.8,3.9,1.8,1.8-1h0l1.7,2.8-.6,1.1,1.2.3,1.9-1.5.9,2.6h0l.5,1.9-3.2,4.5.9,3.8-2,3,3.3,2,.8,3.4,2.5,1.6-.8,2.9-2.6.7v3.3h0l-3.2,2.8-2.2-.7-1.1,2.2-1.7-2.4-1.7,1.3-5.3-1.4-3.4,2.8-3.5-1.8-.4,1.8-5.1-.9-3.4,1.9-9.2-1.1-.4,1.9h0l-5-1.8-6.8-5.9-4.1-1.5-.5-2.4-3.4-.3-1.2-1.2h0l1.6-.4,1.2-3.9.8-1.2,1.8.2.4-1.8-2.3-.8-1.2-3.5,3.5.5-1.1-1.8,1.7-3.5,4.4,1.2-3.1-5.4,1.5-.3Z"/><path id="ES-CS" class="cls-1" d="M466.7,233.2l-1.1-3.3,2.3-2.5,3.7-.8,1.9-6.4,3.1.3,4-4.3-1.8-2.8,2-1-.5-4.8h-2.1l-.2-1.9,3.8-.9.3-2.2,1.6-1.2,2.7,2.1h2.2l.7,1.3,3.5-1.4h0l3.2,1.5-.3,2.1,3.3,1,1,1.9,2.1.9h0l-10,15.5-2.6,1.6-1.5,4.3-4.9,6.7h0l-3.8-2.8H478l-2.1,2.9-2-2.8-1.6,1.9-1.1-.2-.7-3.1-.9-.6-1.1,1.3Z"/><path id="ES-CU" class="cls-1" d="M405.5,223.5l1.4.2.3-2,2.5,1.8,2.5-1.7,1.1-8.4,1.5,1.7.2-.8,1,.6v-1.6l4.3.8-.3-4.2.8,1.2,2.3-.6.9-.6-.9-2,3.1,1,.6-2.6,1.6.9,2.2-1.3,4,2.5.5-.9,1.1.6,1.9,5.9,1.3,1h0l2.9,2.8.2.4,4.1,4.1,2.7-.2-.3,1.8h0l2,4.6,5.7.2h0l.6,1.3h0l-1.8,1,.2,3-2.1,6.3-2.4-.4-3.7,4.4v5h0l-7.1,4.8-5.9-.5-.9-2-2-.2,1.2,3.2-3.1-.5-3.3,1.9-.9-2-1.4,1.8-3.7-3.8-6.2.8h0l-.9-2.7-1.9,1.6-1.3-.3.7-1.1-1.7-2.8h0l.6-6-5.9-8.1.9-3.9h-1.3l-.5-2.8h0l2.7-.9-1-1.9Z"/><path id="ES-GC" class="cls-1" d="M476.5,464.2v3.7l1.7,3.9-.8,2.3-5,3.7-2.7-.4-4.3-4.9.2-3.2,3-1.9v-2.7l6.5,1.2Zm41.3-17.5,1.5,1.9.2,4.3-2.5,9.2-8.2,2.6-3,3.7-4.8-.7.5-1.3,3.3-.2,3.9-3,.5-3.4,4.6-8.1.5-3.7ZM529,431.9l1.4,1.7-1.8,5.9-6.8,2.6-1.3,2.1-2.4-.5,1.6-5.5,4.2-2.8,3.1.2Z"/><path id="ES-GI" class="cls-1" d="M535.6,140.2l4.7,1.2,2.1,3.9,1.9-.5,1.2-1.9,3.4-.9,4.8,1.7,2.5,2.1,1.2-.9,2.7.7v-2.3l3.5-.5,1.1-1.5,5.2-.6,1.4,1.8,2.4-.3-.3,2.7,4.2,1.4-1.5,3.1-2.7-1.1-1.4,2,.3,3,2.4,2.2-.5,1.6,1.1,2.2-.8,2.5-7.3,6.4-4.2,2.3h0v-3l-3.2-.5-3,1.1-3-3-2.3-.3-.6-2.6,1.5.4L555,161l-1.4-1.9,1.9-1.2-.2-2.4h-2l-1.4-2-1.9.6-.6-1.5-3.9,1.2-3.3-1.4-1.1-1.8,1.2.2v1.2l1.5-.6-1.2-2,1.5-2.1-4.5-1.1-1.7.6h0l.4-2.3h-1.3l-.2-1.9-1.8-.6v-1.9h.8Z"/><path id="ES-GR" class="cls-1" d="M419.4,295.2l5.7,2h0l3.6,3.7h0l-2.3,1.4-.6,8.6-2-.3.8,3.7-2.6.4-4.8,3.9-.7,6.2-5-2.3-2.8,6.1-2.1-.5,1.4,4.6-2.5,2,1.1,2.4-3,1.9.3,1.3h0l-5.6.4-2.3,1.5-4.9-1.7-4.7.2h0l.3-2.2-1.6-1.8-6-1.6-6-3.7-1.5-5.7h0l1.9-1.5.6-3.6,2.1-.2,1.9-2.1h2.3l4.3.5,1.5-3.6,4.3-1.2,3.2-3,2.9,1.8,4.9-2.7,3.4,1.6,3-.2,2.6-2.7-.6-2.4,3.2-5.6,4.9-2.7V296Z"/><path id="ES-GU" class="cls-1" d="M401.8,182.9l3.9,1.1,4.2-1.9,2.2,2.5,2.9-.7,2.3,2.2,1.1-.3-.9,1.3,1.2.3-.5,1,1.6-.4,3.2,3.7,1.7-1,.9,1,2.4-1.4,1.6.5,1.1-1.3,2.1,1.8v-2.8h0l2.5-.9,9.2,8.1h0V198l2.1,2.4v7.7l-1.4,1.2-2.1-1.1-.4,3.7-3.1,3.1h0l-1.3-1-1.9-5.9-1.1-.6-.5.9-4-2.5-2.2,1.3-1.6-.9-.6,2.6-3.1-1.1.9,2.1-.9.6-2.3.6-.8-1.2.3,4.2-4.3-.8v1.6l-1-.6-.2.8-1.5-1.7-1.1,8.4-2.5,1.7-2.5-1.8-.3,2-1.4-.2h0l-1.1-4.5-2.3,1.3,1.8-5.5-1.9-1.3v-2.6l-2.6-.8-.6-4.1-.6.6-1.4-2-.4.8-1.6-.7.6-2.5-1.8-1,3.1-7.5-.8-2.9-1.7-.4-1.4-2.5h0l3.7-1.8-.2-1.6h4.2Z"/><path id="ES-H" class="cls-1" d="M300.1,324.7l.9,1.7-2.3-1.4-10,.9-1.6-10.4-1.6-2.3,2.7-6.9,3.8-3.8.5-3.7,3.8-.9.6-1.3,2.7.7,1.8-6.3h0l3.7,1-.5,2,1.5.9h3.7l1.1,2.6,3.1.3.4-1.5h1l6.3,4h0l1.5,1.2-1.1,1.5.8,2.5-1.4-.7-.9,2.3-2.4-.8-4.4,1.3-1.7,2.6.2,1.1,3.6.2,2.4,6-2.1,3.3,1.4,1.3-.3,5.9-1.2,1.6.9,3-.7,1.7,1.3,1.2h0l-.4,3.4h0l-1.3-.4-3.4-5.6Z"/><path id="ES-HU" class="cls-1" d="M463.9,130.9l1.4-1.5.8-4.2,2.5-.7h0l4.3,5,1.7-1.7,3,1,2.1-1.7,4.2,1.8,1.4,2.8,2.5,1.3,5.1-1.8,3.2,2.3,1.8-1.9,1.6,1.3h6.4l1.3,2.6,1.6.3-.7,3.9-1.3.6,2,6-2.9,11.7-2.6,2.2,1.2.7v1.7l-3.7,3.9-1.9.2-1.9,2.8.6,2.9h2.1l.5,2.2-2.8,2.1-.2,2.7h0l-2.4-.7-4.1,2.8-2.3-.4-.9-1.3.4,1.7-1.1-.4-2.8-8.2-1.4-.5-1.1,1.1-3.1-2.3-.3-1.8-3.9-1.5v-3.9l-3.8-4.3h-3.2l-2.9-1.7,2.2-3.4.3,1.5.8-.4.9-8.4-.2-2.6-1.1-.8-.9,4.6-1.8-.6-.3,1.5-.8-.5,2.8-5.1-2.4-1.5.3-2.7-1.1.2,1-1.3-1-1.2.8-1-.6-2,1.3-1.2-1.2-.4Z"/><path id="ES-J" class="cls-1" d="M413.8,279.9l2.4,1.2,2.1-.5.6,3.4,2.4.5,1,7.3-2.9,3.4h0l-1.4.8v2.2l-4.9,2.7-3.2,5.6.6,2.4-2.6,2.7-3,.2-3.4-1.6-4.9,2.7-2.9-1.8-3.2,3-4.3,1.2-1.5,3.6-4.3-.5h0l-2.3-2.9.7-.6-4.3-4,1.5-2-2-1.3.9-2-2.2-.6v-7.7l3.3-4.2-1.3-5.3-1.6-1.6h0l.3-1.8,9.3,1.1,3.4-1.9,5,.9.5-1.8,3.5,1.7,3.4-2.8,5.3,1.5,1.7-1.4,1.7,2.4,1-2.1,2.3.6Z"/><path id="ES-L" class="cls-1" d="M507.4,126.7l5.7,2.5h4.1l2.5,2.9,5-.5,2.3,4.5-.8,2.3,1.5.9-1.3,1,.8,1.6,2.8.2.2-.9,2.6-.4.3-1.3,1.7.5h0V142l1.9.5v2h1.3l-.3,2.3h0l-4.7.9,1,1.7-.7,1.1,1.6,1-1.1,1.5.6,1.6-1.2,1.2.6,1-1.4,1.1,1.4.6v-1.1l.6,1.1-1.9.2v1.8l-2.3,1.7,1.7.8-1,2.9-1.7.9-.7-1.2-1.2.4.3-.9-1.5.2.2,2.3-1.1.9,1.8,2.2-2.4,1.1,1.2.5-.3.9h0l-4.7.2-1.5,1.3.5,1.6-1.9.8-1.9-1.2.9,1.5-3,3.7-2.7.6-.5-.8-.7,1.1-5.1,1.4-2-1.3-1.4,1.3-1.1-1.6-.8,2.1h-1.2l-1.4-4.6h0l.2-2.7,2.8-2.1-.5-2.1h-2.1l-.6-3,1.9-2.7,1.9-.3,3.7-3.9v-1.7l-1.2-.6,2.6-2.3,2.9-11.6-2-6,1.3-.7.7-3.9-1.6-.3-1.3-2.6h0v-5.3Z"/><path id="ES-LE" class="cls-1" d="M357.8,114.9l-.3,2,3.1,3.8h0l-4.4,6v2.7l-1.1,1.5,1.7,1.3-1.1,5.4.3,6.3-1.9.5.7,2.3-1.5.8h0l-1-.3-.4,1.4-1.5-2-1.9,1.8-1.5-.4v2.2l-4-.3.4,6.5h0l-1.3.4h0l-2.6-2.4h0l-1.8,1.7-2.2-3.3-4.8,1.1-1.4-1.6-1.5,1.1-2-1.2-5,.4-2.7-2.2-4.9.9-5.6-1-2.2-1.6h0l1.4-3.8-3-1.7.6-3.1-2.9-1.1-1.3,1-2.6-.5h0l.8-4.5,1.1-.4-1.1-1.9,4.8-3.4.7-1.3-.8-1.9,1.5.2-.2-1.7h0l1.8,1.2,1.8-1.4h5.4l1.5-.7-1.2-1.9,1.4.2,1.8-2.7,3.6,1.9.3-1.4,3.2.6.4-1.7,2.9.4,1.6,2.7,2.9,1.1,3-3.4,5.4,1.2.4-1.2,2.4.2.6-1.6,7.2-.3.7-2.9,2.1.3,2.3-2.4Zm-13.7,33.6,1.2.3h0l-.8.8Z"/><path id="ES-LO" class="cls-1" d="M409.7,157.1l-.5-2.3h-2.8l-2.5-4.1L405,149l-.6-3.8,1.2-.2-1-2.2,1.2,1.7.3-2.7-1.3-1.6.6-1.4-1.7-.5,2-1.8-.6-1.8h6.1l1,.8v2.2l1.6-2.5,2.3,1-.7,2.9.8-.3.7,1.5,1.2-.7.2,1.1,1.8-.4.6-1.3-.2,1.1H423l2,1.4,1.5-.6,2,1.9,2.8-.2.6,2.7,2.5-.7,3.4,2.8v1.3l5.2,2.2v1.4h-3.8l-1.9,2.4-.3,2,1.5.8h0l-.2,1.5h0l-3.4,1.7-3.5-1.4-1.4-3.9,1-1.1-3.9.3-1.7-2.1-4.9,1.2-1.7,4.2-4.5-.4,1.1-3.4-.9-.8-1.4.6-.6,2.6Z"/><path id="ES-LU" class="cls-1" d="M282.4,93.7l1.2,3.1,1.8-2.5,4.6,2.4,3,3.6-.6,1.3.8-1.1,5.3.5-.3,3h0l-1.4,1.8H295l-.3,1.4,1.5.7.7,2.5H298v2.3l2.4,1.4.4,2.5,2.5-1.7,1.1,1.5-4.7,4.5,3.4,1.1,1.3,2.7h0l.2,1.7h-1.5l.8,1.8-.7,1.3-4.8,3.4,1.1,1.9-1.1.4-.8,4.5h0l-3.4,6.7-.5-2.3-2.3-1.5L283,144l-4.6-2.9.6-1.1-4-.5.7-1.5-1.1-1h0l1.8-4.7-3.1-2.7.6-2.2-1.2-.3h0l2.5-3.8L274.1,111l1.6-1.8v-2.3h1.9l1.1-1.8,1.2-6.4,1.2-1.2-.4-2.1h0Z"/><path id="ES-M" class="cls-1" d="M373,205.2l.5.8-1.7.2h0Zm19.8-17.3,1.4,2.5,1.7.4.8,2.9-3.1,7.6,1.8.9-.6,2.6,1.7.6.3-.7,1.4,1.9.6-.6.6,4.1,2.6.8v2.6l1.9,1.3-1.8,5.6,2.3-1.4,1.2,4.5h0l-.8.5.9,1.9-2.7.9h0l-.3-.9-2.8,1.5-1.5-1.2-1.6,1.6-3.1-.4-8,5.7-1.9-1.6,3.2-.7,3.7-3.7.3-1.9-1.6-1.2-2.1.4-1.6-1.6-3.9-.4-3.3-2.6-1.9.7-1.3-1.9-3.5,2.6-1.6-3.3-1.5,2.8-2.7,1.4-1.1-.6h0l1.3-2.7-.5-1.7,2.5.7.9-3,2.7-.2.8-7.6,1.3.9,2.2-.8v-2.3h0l2.5-3.7,2.4.3,2.3-6.4,3-1.2,4.6-5.3Z"/><path id="ES-MA" class="cls-1" d="M362.8,323.3h1.1l.3,1.6h1.7l2.6-2.3h1.6l1.5,3.1h0l1.5,5.7,6.1,3.7,5.9,1.6,1.6,1.8-.3,2.2h0l-16.6.5-6.6,7.2-7.9.2-6.6,2.9-2,3.4h0l-1.8-.4-3-7h-1.7l-.8,1.3-2.3-.5v-.9l2.4.3,1.8-3,3.6-1.7.9-3.5-1.4-1.4,1.1-1.7,4.5,1,1.3-2.2-1.5-3.3h0l6.3-3.7-.9-2.1,1.8.6,1.3-1.4.8,1.5,2.4-1.4-.7-1.8Z"/><path id="ES-ML" class="cls-1" d="M306.6,454.6l1.3.6-.4,2.3,2.8,3.5,2.9,1.8-1.7-.8-1.4.7-.2,3,2.3,2.1-.5,1-4.6,1.7-4.8-4.8-.8-3.9,2.4-6.7,2.1-1.4Z"/><path id="ES-MU" class="cls-1" d="M425.1,297.2l3.4-6,4.5-3.6,3.8.3,4.4-2.8,1.5.5.5,1.8h2.1l3-2.2-.5-5.3,2.6-5.5,1.6.5,4.3-2.7,4.2,3.4h0l.4,5.5-2.2,2,.3,3.1,2.5.9.6,1.7-1.7,6,3.5,5.9,3.7,2.6h0l-2.6,4.3,3.6,2.9.2.9-5.4,1.8-4.2-1-1,1.7-2.7-1.4-3,.4-3.7,2.6-.5,2.1-4,1.7h0l-2.9-2.3-2.9-.4-3.6-5.6-.9-2.8,1-5.7-6.3-1.6h0Z"/><path id="ES-NA" class="cls-1" d="M443.7,110.1l1.1,2.1,2-1.5,4.1,1.5v2.4l-2.4,3.7.8,1.5,2.4.7.2-2.5,2-.8-1,1.8,1.2.9,1.4-.3,7.2,3.6,5.2-.5.7,1.8h0l-2.5.7-.8,4.2-1.4,1.5h0l-3.4,1.6-.7,2.1-2.7-.2-1.3,3.6-1.7-.3-.6,1.3.4,1.4-1.9,2.2.4,2.4-1.9,2.4-.5,2.9.5,3.1,2.5,3-2.8,4.4-4,.2-7.8-3.4h0l-1.5-.8.3-2,1.9-2.4h3.8V151l-5.2-2.2v-1.3l-3.4-2.8-2.5.7-.6-2.7-2.8.2-2-1.9-1.5.6-2-1.4h0l.6-4-1.5,1.1-1.3-1.8,2.3-1.6.9,1,2.5-.8-.9-2.5,1.6-.9.3-5.4h0l1.1-2,2.2.4,2.5-1.5.4-3.1,3.2-2.6-.3-3.2,1.5.4,3.5-3.1h0Z"/><path id="ES-O" class="cls-1" d="M330.9,97.1l3.9,4.4,7.7-.4,2.9.7,2.3,2.3,7.8.4,11.1,2.5h0l-.3,4.3-2.2-.8-.7,1.2-2.7.4-.2,2.6-2.7.2h0l-2-2.1-2.2,2.4-2.2-.3-.6,2.9-7.2.3-.6,1.6-2.4-.2-.4,1.3-5.4-1.3-3,3.4-2.9-1.1-1.6-2.6-2.9-.4-.4,1.6-3.2-.6-.3,1.4-3.6-1.8-1.8,2.6-1.4-.2,1.2,2-1.5.7H308l-1.8,1.4-1.8-1.1h0l-1.3-2.7-3.4-1.2,4.8-4.5-1.1-1.4-2.6,1.7-.4-2.6-2.4-1.4v-2.3h-1.1l-.7-2.6-1.5-.7.3-1.4h1.9l1.3-1.7h0l1.2-2.1-.6-1,2.3-.7,15.9.9,3-1.7,3.4,1.6,4.2-.9Z"/><path id="ES-OR" class="cls-1" d="M274.5,136.9l1.1,1.1-.6,1.5,4,.5-.6,1,4.6,3,8.3-1.6,2.4,1.5.5,2.2,3.3-6.6h0l2.7.5,1.2-1,3,1.1-.6,3.1,3,1.7-1.4,3.8h0v1.4h-2.6l-4,5,1.6.7-.2,3h0l-2.3.9-1.4-1.4-1.6.2-.5,3.6-4.5,1-1.7,1.7-.7-2.1-4.3,1.3.7-1.9-3.1-.9-3.9.9-.7,1.3-.9-3-.4,1.8-5.7,2.5-2.3-3.7,3.6-4.9-.9-1.3-1.7.7-.5-3.3h0l1-3.2-2.8-.3v-2.3l-1.7-1.1-1.1-5.2h1.7l3.5-3,4.2,1Z"/><path id="ES-P" class="cls-1" d="M378.4,151.8l.3,1.4h0l-1.3-1h0Zm.8-21.7,1.1-2.4V130h-1.2Zm-18.6-9.4h4.8l3-1.4,2.7,3.1,2.9.7.5,3.8,2-.7.5.8-1.5,1.4,2.7,1.8h0l-5.7,2.5.8,2.7-1,2.3,1.6,3.6h-2l-.5,1.4.4,1.5,1.3-.2,1.1,6.4,1.1,1.2-.4,1.5,4,1.2-1.3.5.7,1.8,2.6-.5-1.4,3.5,3.8-1.6v1.5l-2.4.9v1.1l-2.9,1.1,1.3,3.7h0l-5.2-1.7-2.2,1.9-2-.9-1.7,1-1.3-.4.8-2.6-2.5,1.1-2.8-3.2-3.2,3-2.2-4.1-3.1.8-.6-1.4,2.8-4.7-.7-2.6h-2.7l.7-4.9h0l1.5-.8-.7-2.3,1.9-.5-.3-6.3,1.1-5.4-1.7-1.3,1.1-1.5-.2-2.6Z"/><path id="ES-PM" class="cls-1" d="M526.4,271l2,3.5h2.1v1.5l-3.2-1.2-1.8,1.5Zm3.1-11.3,1.9,1,.4,2.2-5.4,4.2-.4,2.6-1.6-1.4h-3.3l-.2-3.1,2.5-.5-.5-1.9Zm45.2-29.3-3.6,2.1.7,1.5,2.7-1.1-.8,1.8-1.5.2.5,1.9,3.1,1.7,2.5-2.1,3.6,2.6-1.2,2.8-1,.2.2,1.8-2.9,2.7-1.8,4.8-4.3,3.2-3.1-3.3h-4.6l-1.7-3.9.7-1.2-2-1.8-3.6,1.3-.5,2.3-1.3-.3-.4-2.4h-2.6v-2.7l11.2-8.6Zm23.4-4.6,1.2,2.3.8-1.4.2,1.2,2.9,1.3,1.1,4-.8,2.5-7.9-4.2-4.5.3.2-2.5-1-.8.8-1.2h6.3Z"/><path id="ES-PO" class="cls-1" d="M253.1,133.3l.3-1,2.9-.4,1.4-1.6,4,.2.4-1.3,1.6-.2-.2-1.7,1.7,1.1,2.5-1.8,3.7,1.1,1.3-.7h0l1.2.4-.6,2.2,3.1,2.6-1.8,4.7h0l-2.4,1.3-4.2-1.1-3.5,3h-1.7l1.2,5.2,1.6,1.1v2.2l2.7.4-1,3.2h0l-3.5,2.6-8.2,1.3-6.5,6.4-.7-8.8h2.4l-1-1.5,1-1.2,5.4-3.5-.5-2.4-1.6,2.7-4.9,1,.4-2.1,1.1,1.1-.5-2.2,1.8.3,3-3.4-4.9,1.5-1.1-2.6-1.7-.3,2-1.4v2l1.3-.2-.2-4.5Z"/><path id="ES-S" class="cls-1" d="M399.3,113.9l-.2-1.9h1.5l-.4,1.9Zm-7.7-11.4,4.2,2.1-.2.9-1.4-.5.7,2.1.5-1.1h3.2v1.1l2.7-.3,1.8,1.6h0v1.9h-4.7l-3.1,2.4.8,3.8h0l-5-.6-1.3-1.1-2.8,3.5h-2.4V120l-2.6,1.3-1.2,2.8,1.5,1.1,1.3-1.8,1.3.3-2.3,1.9,1.2,1.4.4-1.4.7.4.6,2.5-4.9,1.5h0v-2.3l-1.2,2.4h0l-.9.2h0l-2.8-1.8,1.5-1.3-.4-.9-2,.7-.6-3.8-2.9-.6-2.7-3.2-3,1.4h-4.8l-3.1-3.9.3-2h0l2.8-.2.2-2.6,2.6-.4.7-1.2,2.3.8.3-4.2h7.8l11.8-3.6.6.9-1.6.7.2,1.8,1.1-1.8.9.7.4-1.6Z"/><path id="ES-SA" class="cls-1" d="M313.6,183.3l4.4.8,4.9,2.9,2-1.1,1.4.7-.3,1.6,1.1-.7.7,1.3,1.5-3.5,3.6.8,2.9-1.1,4.6,2.4h.2l1.9-.3.2,1.5,1.9,1,1.1-2.3h0l1.3-.6,3.1,2.4h0l-.7,2.4,1.7,2.4-2,6.4-6,5.1v1.8l-1.8,1.4-1.8-.2-.2,1.6,2.6-.5-1.1,3.2h-1.2l-.4,1.5-1.3-.8.4-1.1-2,.5-1.5,1.4.5,2.6-1.8,1.9h0l-1.5.3v-2.4l-2.3,1-.9,1.7-1.4-.4-1.3-1.8-2.4-.6,1.1-1.4-1.7-.8.3-.8-3.1-1.6-8.2,4.9-1.4,2.7-2.7,1-.8-.9-1,1.1-3-1.2h0l2.3-3.3-1.8-3,1.4-2.1-1.3-2,1.4-3.3-1-3.3.8-3.4-3.5-6.4,3.3-.3,1.1-3.5,3.2-4,2.1.3Z"/><path id="ES-SE" class="cls-1" d="M321.7,300.1l1.7-1.4,4.4-.5,1.2-2.3-.5-1.4,2-2.3,4.3-.5.2,1-1.5,1.1.8,1.5,2.1-1.9,1.3.2h0l7.4,12.2v2.5l-2.8.5,1.4,3.4,4.9-3.3,1.9.7-.6-1.3,1.6,1.3V308h2l1.2,1.8-.5,1.8,1.1-.6-.5,3.2,1.8,2.9h1.2l1.5,3.6,2.6-.5.9,2.9h0l-2.2.2.7,1.8-2.3,1.5-.9-1.6-1.3,1.4-1.7-.6.8,2.1-6.3,3.7h0l-2.5,2.1-1.8-3.2-3.7,3.4.3-3.7-1.8.2.7,1.9-2,1.8.3,1.2-3.6-2.8-1.4,1.9-3.4.2-1.2,2.4-11.9-1.9h0l-1.3-1.2.7-1.7-.9-3,1.2-1.6.2-5.9-1.3-1.3,2.1-3.3-2.4-6h-3.6l-.2-1.2,1.7-2.5,4.3-1.4,2.4.9,1-2.4,1.4.8-.8-2.6,1.1-1.4ZM353,311.9l-1.8-1.9,1.4.2Z"/><path id="ES-SG" class="cls-1" d="M380.9,172.9l4.3,3.7,1.5-2.1.7,3.2.3-2.4,1.6-1.6,3.5-.6h0l1,1.8,2.1.4.3,1.5,2.3.5-.6,2.4,3.9,3.2h0l-1.3,1.7h-4.2l.2,1.6-3.7,1.8h0l-2,.5-4.5,5.3-3.1,1.2-2.2,6.5-2.5-.3-2.4,3.6h0l-3.1.5h0l-1.2,1h0l-2.7.5-.3-3.8-1.7-3.2-1.7-.3.7-.6-.9-3.5-4-3.8-.2-3.1h0l1.1-1.3,1.4.6-.6-1.8,2.1-2-.7-1.6,3.5.9-1.2-4.1,12.1-3,1.7-.8Z"/><path id="ES-SO" class="cls-1" d="M409.7,157.1l2.7-.5.6-2.6,1.4-.6.9.8-1.1,3.4,4.5.4,1.7-4.2,4.9-1.2,1.7,2.1,3.9-.3-1,1.1,1.4,3.9,3.5,1.4,3.4-1.7h0l1,4.1-.9,2.3,1.7,3.2-3.6,3.7h-1.9l1.5,6.9-2.5.8-.2-1.5-1.7-.7-1.7,3.3.5,6.1,2.5,1.3h0v2.8l-2.1-1.8-1.1,1.3-1.6-.5-2.4,1.4-.9-1-1.7,1-3.2-3.7-1.6.3.5-.9-1.2-.3.9-1.3-1.1.3-2.3-2.2-2.9.7-2.2-2.5-4.2,1.9-3.9-1.1h0l-3.9-3.2.6-2.4-2.3-.5-.3-1.5-2.1-.4-1-1.8h0l.3-1.2,1.9.8,2.8-5.3,2.1-1.1-.2-4.2,3,3.3,2-3.2,2.2-.2Z"/><path id="ES-SS" class="cls-1" d="M439.9,107l-.2,1.8,1.7.6.2,1.2h0l-3.5,3.1-1.5-.4.3,3.2-3.2,2.6-.4,3.1-2.5,1.5-2.2-.4-1.1,2h0l-2.8-2-6.1-.5-.4-1.6,2-1.3-.6-1.6h0l1.2-.3v-4.6l1.6-.8.7-2.9h0l7.7,1.1Z"/><path id="ES-TE" class="cls-1" d="M444.6,195.7h3.9l.7-1-.8-1.4,1.9-1.8,1.3-.8v1.1l1.8.3.9-2.6,3.6-.5.4-1.1,1.8,1.2,1.8-.7-.7,2.1,1.1.6,2-2.5.6,1.4h1.9l.8-2.2,1.8,2.1,2.2-2.9-1.6-1.6,1.2-.4v-2.3l.7-.4,2.5,3.1-1.9-3,.4-1.2,2.3.3,2,2.6,10.3,5.2,1.7,2.9.9-1.2,4,.3h0l2,3.6-1.5,3,1.1,2.3-2.9,3.1h0l-3.5,1.5-.7-1.3h-2.2l-2.7-2.1-1.6,1.2-.3,2.2-3.8.8.2,1.9h2.1l.5,4.9-2,1,1.8,2.8-4,4.3-3.1-.3-1.9,6.4-3.7.8-2.3,2.5,1.1,3.3h0l-2.5,1-.8-3.9-6-.3h0l-.6-1.3h0l2.5-1.8-2-1.9h-2.7l-1.4-3.4-1.6,2.9-2.5-.6h0l.3-1.8-2.7.2-4.1-4.1-.2-.4-2.9-2.8h0l3.1-3.1.4-3.7,2.1,1.1,1.4-1.2v-7.7l-2.1-2.4Z"/><path id="ES-TF" class="cls-1" d="M408.9,474.3l1.3,1.4-2.6,5-4.9-2.3.7-1.7,2.6.2Zm18-11.2,4.3,2.8-2.6,3.1h-2l-2.1-2.2.8-3.1Zm29.7-11.3.9,1.8-6.3,4.6-1.9,7.1-3.1,3.7-4.2.6L436,459l11-2,5-4.8Zm-47.5-8.2,3.9.6,1.4,2.9-1.2,2,.3,3.4-2.2,3.5-4.6-9Z"/><path id="ES-TO" class="cls-1" d="M364.8,221.4l1.2.6,2.6-1.3,1.6-2.8,1.6,3.2,3.5-2.5,1.3,1.8,1.9-.7,3.3,2.7,3.8.4,1.7,1.6,2.1-.4,1.6,1.2-.4,1.9-3.6,3.7-3.2.7,1.9,1.6,8-5.8,3,.5,1.6-1.6,1.6,1.2,2.7-1.6.4,1h0l.5,2.8h1.3l-.9,3.9,5.9,8.1-.6,6h0l-1.8,1-3.9-1.9-4.1.9L399,250l-2.7-.2-3.3,3.5-5.1,1.2-1.9-.8-1.7,1.2-2.9-1.4-.2-1.9-4.8-.4.8-3.2h1.4l.2-2.3h.8l-.3-1.8h-3.2l-.9,2.8-1.3.6-5.4-1.5-.5,1.5-1.7-2.9-2.5,3.8h-1.9l-1.8,1.2h0v-3l-3-1.9-2.1,5.6h-.3l-6.9-7,1.9-4.1-.8-3-2.4,1.7-1.4-.3.6-3.6-1.1-1-2.2.5,1-7.8.9-.5h0l4.5,1.1,4.1-2.6v1.6l1.6-.3,4-4v-1.4l2.8-.3,1.2,3Z"/><path id="ES-T" class="cls-1" d="M525.7,173.2l1.6.2-1.5,2,2.4,1.4-.4,3.4,1.8-.2,1.4,3.3h1.3l-.5,1.5-1.3-.2,1.9.9v1.4h0l-11.6,3.3-1.1,1.7-1.4-.7-3.7,1.2-7.7,8.5,4.7,2.5v1.2l-5.4,4.8-2-.6,3-.7,1-1.4-3.8.5-2.3,3.5h0l-2.1-.8-1-2-3.3-.9.3-2.1-3.2-1.6h0l2.9-3.1-1.1-2.3,1.5-3-2-3.6h0l-.5-2,2.7-1.3,2.3-4.1h1.2l.8-2.1,1.1,1.6,1.4-1.3,2,1.3,5.2-1.4.6-1.2.5.9,2.8-.6,2.9-3.8-.9-1.5,1.9,1.3,1.9-.8-.4-1.6,1.4-1.3Z"/><path id="ES-V" class="cls-1" d="M457.4,230l6,.3.8,3.9,2.5-1h0l1.8,2.3,1-1.3,1,.6.7,3.1,1.1.2,1.6-1.9,2,2.8,2.1-3h1.3l3.8,2.8h0l-3.5,6.9-.4,3.5,3.1,8.2-.5,2,1.3,3.2,4,5.2h0v.9l-.9-.9-2.1.9-.4-1-1.8,1.2-2.2-1-4.4,2.7h-2.9v1.1l2.1.9-3,1.9-3.1-2.5-2.7.9-2.5-1.7h0l-.9-5.6-5,.6-3.2-4.2,2.7-9-4.6-.8-2.1-1.6-1.1.6V250l-1.4-.6h0v-5.1l3.7-4.4,2.4.4,2.1-6.3-.2-3Zm-8.3-6.1,2.5.6,1.6-2.9,1.4,3.4h2.7l2,1.9-2.5,1.8h0l-5.7-.2Z"/><path id="ES-VA" class="cls-1" d="M339.5,154.4l2.6,2.4h0l-.4,2.3-1.3-.6Zm4.6-5.9,1.2.3h0l-.9.8Zm-.8,7.9-.3-6.5,4,.3V148l1.5.4,1.9-1.8,1.5,2,.5-1.4.9.3h0l-.6,4.9h2.6l.7,2.6-2.7,4.7.5,1.4,3.1-.8,2.2,4.1,3.2-3,2.8,3.2,2.5-1.1-.8,2.6,1.3.4,1.7-1,2,.9,2.2-1.9,5.2,1.7h0l-.9,1.5,2.6,5.1h0l-.5,2.4-1.8.8-12.1,3.1,1.2,4-3.4-.9.6,1.7-2.1,1.9.6,1.8-1.4-.5-1.1,1.3h0l-3.8,1.9-3.4-2.4-3.6,1.1h0l-3.2-2.3-1.3.5h0l-1.3-.4,1.3-2.7-1.5-7.5,3.2-1.8-1.8-1.6.6-1-1.5-.5v-2.4l-1.7-2.8,3-1.9-1.4-.7,1-3.2-1.1-.6,2.2-1.6Z"/><path id="ES-VI" class="cls-1" d="M403.5,115.6l1.8.5,2.6-2,1.2,2.4-1,1.5,2.1,1.8,3.4.7,3.6.3-.7-2,3.1-.5h0l.6,1.6-2,1.3.5,1.6,6,.5,2.8,2h0l-.3,5.4-1.6.9.9,2.5-2.5.8-.9-1-2.3,1.6,1.3,1.8,1.5-1.1-.6,4h-2.6l.2-1.1-.6,1.3-1.8.4-.2-1.1-1.2.7-.7-1.5-.8.3.7-2.9-2.3-1-1.6,2.5v-2.2l-1-.8h0l-5.2-4.7-2.6.3.9-4.8-2.1.7-.4,1.6-2.1-1.8,1.6-2.7,3.7,1.8,2.9-1.4-2.2-2.4-3.1-.7.9-.3.2-2.4-1.2-.9Zm8.5,13.8,7.2.8-1.3,2.4.8,1.1,1.5-.6.2,1.4-6.8-.8-2.7-2.7.9-2h0Z"/><path id="ES-Z" class="cls-1" d="M463.9,130.9l-.6,1.6,1.2.4-1.3,1.2.6,2-.8,1,1,1.2-1,1.3,1.1-.2-.3,2.7,2.4,1.5-2.8,5.1.8.5.3-1.5,1.8.6.9-4.6,1.1.8.2,2.6-.9,8.4-.8.4-.3-1.5-2.2,3.4,2.9,1.7h3.2l3.8,4.3v3.9l3.9,1.5.3,1.8,3.1,2.3,1.1-1.1,1.4.5,2.8,8.2,1.1.4-.4-1.7.9,1.3,2.3.4,4.1-2.8,2.4.7h0l1.3,4.6h0l-2.2,4.1-2.7,1.3.5,2h0l-4-.3-.9,1.2-1.7-2.9L477.2,184l-2-2.6-2.3-.3-.4,1.2,1.9,3-2.5-3.1-.7.4v2.3l-1.2.4,1.6,1.6-2.2,2.9-1.8-2.1-.8,2.2H465l-.6-1.4-2,2.5-1.1-.6.7-2.1-1.8.7-1.8-1.2-.4,1.1-3.6.5-.9,2.6-1.8-.3v-1.1l-1.3.8-1.9,1.8.8,1.4-.7,1h-3.9l-9.2-8.1-2.5.9h0l-2.5-1.3-.5-6.1,1.7-3.3,1.7.7.2,1.5,2.5-.8-1.5-6.9h1.9l3.6-3.7-1.7-3.2.9-2.3-1-4.1h0l.2-1.5h0l7.8,3.4,4-.2,2.8-4.4-2.5-3-.5-3.1.5-2.9,1.9-2.4-.4-2.4,1.9-2.2-.4-1.4.6-1.3,1.7.3,1.3-3.6,2.7.2.7-2.1Z"/><path id="ES-ZA" class="cls-1" d="M305.4,148.7l2.2,1.6,5.6,1,4.9-.9,2.7,2.2,5-.4,2,1.2,1.5-1.1,1.4,1.6,4.8-1.1,2.2,3.3,1.8-1.7h0l.9,4.1,1.3.6.4-2.3h0l1.2-.4h0l3.3,2.2-2.1,1.6,1.1.6-1,3.2,1.4.6-3.1,1.9,1.7,2.9v2.3l1.6.6-.6.9,1.7,1.7-3.1,1.7,1.4,7.6-1.3,2.6,1.4.5h0l-1.1,2.3-1.9-1-.2-1.5-1.9.3h-.2l-4.6-2.4-2.9,1.1-3.6-.8-1.5,3.5-.7-1.3-1.1.7.3-1.6-1.4-.7-2,1.1-4.9-2.9-4.4-.8h0l2.7-2.3-.2-1H318l-.4-.9,3.6-6.4-3.9-3-2.7-.4-1.5,1-1.3-1.1-.6-2,1.5-4.6-1.5-.5.6-2-1-1-3.1,1.2-3-2.1-.5,1.8h-3l-1.1-1h0l.2-3-1.6-.7,4-5h2.6Z"/></g></svg>