<svg viewBox="0 0 841.9 595.3" xmlns="http://www.w3.org/2000/svg" data-name="Capa 1"><defs><style>  .cls-1,.cls-2,.cls-5{fill:none;}.cls-1,.cls-2,.cls-4{stroke:#1d1d1b;}.cls-1,.cls-2,.cls-4,.cls-5{stroke-miterlimit:10;}.cls-1{stroke-width:3px;}.cls-3{fill:#1d1d1b;}.cls-5{stroke:#000;}</style></defs><title>  dibujo</title><polygon class="cls-1" points="448.7 284.6 606.9 284.6 606.9 215.9 179.2 215.9 179.2 429.7 606.9 429.7 606.9 361 448.7 361 448.7 284.6"/><circle class="cls-1" cx="356.3" cy="319.8" r="54.6"/><line class="cls-2" x1="179.2" y1="212.9" x2="179.2" y2="82.1"/><line class="cls-2" x1="603.2" y1="212.9" x2="603.2" y2="82.1"/><line class="cls-2" x1="179.2" y1="107.9" x2="603.2" y2="107.9"/><line class="cls-2" x1="356.3" y1="212.9" x2="356.3" y2="129"/><line class="cls-2" x1="356.3" y1="153.4" x2="603.2" y2="153.4"/><line class="cls-2" x1="174.6" y1="317.5" x2="112.1" y2="317.5"/><line class="cls-2" x1="174.6" y1="429.7" x2="112.1" y2="429.7"/><line class="cls-2" x1="143.3" y1="317.5" x2="143.3" y2="429.7"/><polyline class="cls-2" points="447.9 281.1 447.9 201.5 447.9 183"/><line class="cls-2" x1="603.2" y1="195.6" x2="447.9" y2="195.6"/><line class="cls-2" x1="613.6" y1="215.9" x2="738.7" y2="215.9"/><line class="cls-2" x1="613.6" y1="429.7" x2="738.7" y2="429.7"/><line class="cls-2" x1="710.6" y1="215.9" x2="710.6" y2="429.7"/><line class="cls-2" x1="611.6" y1="283.4" x2="685.9" y2="283.4"/><line class="cls-2" x1="663.8" y1="283.4" x2="663.8" y2="429.7"/><polyline class="cls-2" points="611.6 361.8 626.4 361.8 641.1 361.8"/><polygon class="cls-3" points="192 107.9 179.2 107.9 192 100.1 192 106.9 192 107.9"/><polygon class="cls-3" points="369.1 153.4 356.3 153.4 369.1 145.6 369.1 152.4 369.1 153.4"/><polygon class="cls-3" points="460.7 195.6 447.9 195.6 460.7 187.8 460.7 194.6 460.7 195.6"/><polygon class="cls-3" points="710.6 228.7 710.6 215.9 718.4 228.7 711.6 228.7 710.6 228.7"/><polygon class="cls-3" points="663.8 296.2 663.8 283.4 671.6 296.2 664.8 296.2 663.8 296.2"/><polygon class="cls-3" points="626.4 374.6 626.4 361.8 634.2 374.6 627.4 374.6 626.4 374.6"/><polygon class="cls-3" points="590.4 107.9 603.2 107.9 590.4 100.1 590.4 106.9 590.4 107.9"/><polygon class="cls-3" points="590.4 153.4 603.2 153.4 590.4 145.6 590.4 152.4 590.4 153.4"/><polygon class="cls-3" points="590.3 195.6 603.1 195.6 590.3 187.8 590.3 194.6 590.3 195.6"/><polygon class="cls-3" points="710.6 416.9 710.6 429.7 718.4 416.9 711.6 416.9 710.6 416.9"/><polygon class="cls-3" points="663.8 416.9 663.8 429.7 671.6 416.9 664.8 416.9 663.8 416.9"/><polygon class="cls-3" points="626.4 416.9 626.4 429.7 634.2 416.9 627.4 416.9 626.4 416.9"/><polygon class="cls-3" points="143.3 416.9 143.3 429.7 135.5 416.9 142.3 416.9 143.3 416.9"/><polygon class="cls-3" points="143.3 329.2 143.3 316.4 135.5 329.2 142.3 329.2 143.3 329.2"/><path d="M470.7 148.8a7.7 7.7 0 0 0 3.3 0.9c2.6 0 3.4-1.6 3.4-2.9s-1.9-3-3.9-3h-1.1v-1.5h1.1c1.5 0 3.4-0.7 3.4-2.5a2.3 2.3 0 0 0-2.6-2.3 5.9 5.9 0 0 0-3 1l-0.6-1.5a8 8 0 0 1 4-1.1c2.9 0 4.2 1.7 4.2 3.6a3.7 3.7 0 0 1-2.7 3.5h0a4 4 0 0 1 3.3 3.9c0 2.4-1.9 4.4-5.4 4.4a7.3 7.3 0 0 1-3.9-1Z"/><path d="M482.5 148.8a7.7 7.7 0 0 0 3.3 0.9c2.6 0 3.4-1.6 3.4-2.9s-1.9-3-3.9-3h-1.1v-1.5h1.1c1.5 0 3.4-0.7 3.4-2.5a2.3 2.3 0 0 0-2.6-2.3 5.9 5.9 0 0 0-3 1l-0.6-1.5a8 8 0 0 1 4-1.1c2.9 0 4.2 1.7 4.2 3.6A3.7 3.7 0 0 1 488 143h0a4 4 0 0 1 3.3 3.9c0 2.4-1.9 4.4-5.4 4.4a7.3 7.3 0 0 1-3.9-1Z"/><path d="M521.5 180.1h0l-2.6 1.4 -0.4-1.6 3.3-1.7h1.7v14.9h-2Z"/><path d="M538.6 178.2v1.3l-6.5 13.6H530l6.5-13.2h-7.3v-1.6Z"/><path d="M127.9 379h0l1.4 2.6 -1.5 0.4 -1.8-3.3v-1.7h15V379Z"/><path d="M127.7 362.7v5.7l3.9 0.6a4.5 4.5 0 0 1-0.1-1.2 6.2 6.2 0 0 1 0.8-3.3 4.5 4.5 0 0 1 3.8-2.1c3 0 5.1 2.3 5.1 5.6a6.9 6.9 0 0 1-0.9 3.7l-1.5-0.5a6.5 6.5 0 0 0 0.8-3.2 3.3 3.3 0 0 0-3.2-3.6c-2 0.1-3.3 1.4-3.3 4.3 0 0.9 0.1 1.6 0.1 2.1l-7.2-1v-7.1Z"/><path d="M715.9 309.5a7.3 7.3 0 0 0-0.9 3.3c0 2.6 1.6 3.4 2.9 3.3s3-1.9 3-3.8v-1.1h1.5v1.1c0 1.4 0.7 3.3 2.5 3.3s2.3-0.7 2.3-2.6a5.9 5.9 0 0 0-1-3l1.5-0.5a7.9 7.9 0 0 1 1.1 3.9c0 2.9-1.7 4.3-3.6 4.3a3.9 3.9 0 0 1-3.5-2.8h0a4 4 0 0 1-3.9 3.3c-2.4 0-4.5-1.8-4.5-5.4a7.2 7.2 0 0 1 1.1-3.9Z"/><path d="M721.2 330.7c-5 0-7.9-1.9-7.9-5.2s2.8-4.9 7.7-4.9 7.8 2.1 7.8 5.2S726 330.7 721.2 330.7Zm-0.2-8.1c-3.9 0-6.1 1.2-6.1 3s2.4 3.1 6.2 3.1 6.1-1 6.1-3.1S725.1 322.6 721 322.6Z"/><path d="M632.7 390.7a4.3 4.3 0 0 1 4 3h0a3.7 3.7 0 0 1 3.4-2.4c2.3 0 4 2 4 4.6s-1.9 4.4-3.7 4.4a3.9 3.9 0 0 1-3.5-2.5h-0.1c-0.7 1.9-2 3-3.8 3s-4.4-2.2-4.4-5.1S630.5 390.7 632.7 390.7Zm0 8.1c1.9 0 2.7-1.3 3.3-3.3s-1.6-2.7-3.1-2.7a2.7 2.7 0 0 0-2.8 3A2.7 2.7 0 0 0 632.7 398.8Zm7.5-5.6c-1.5 0-2.3 1.1-2.7 2.9a2.9 2.9 0 0 0 2.7 2.2 2.3 2.3 0 0 0 2.4-2.5A2.4 2.4 0 0 0 640.2 393.2Z"/><path d="M665.9 343.6h1.2l1.6 1.6c3.6 3.8 5.5 5.5 7.8 5.6a2.7 2.7 0 0 0 2.9-3 5 5 0 0 0-1.3-3.2l1.5-0.6a6.9 6.9 0 0 1 1.5 4.2 4.2 4.2 0 0 1-4.4 4.6c-2.7 0-5-2-8-5.2l-1.1-1.2h0v6.7h-1.7Z"/><path d="M665.9 355.4h1.2l1.6 1.6c3.6 3.8 5.5 5.5 7.8 5.6a2.7 2.7 0 0 0 2.9-3 5 5 0 0 0-1.3-3.2l1.5-0.6a6.9 6.9 0 0 1 1.5 4.2 4.2 4.2 0 0 1-4.4 4.6c-2.7 0-5-2-8-5.2l-1.1-1.2h0v6.7h-1.7Z"/><path d="M387.3 92.2h-1.5a6.1 6.1 0 0 0-5.2 5.3h0.1a4.3 4.3 0 0 1 3.6-1.7c2.7 0 4.5 1.9 4.5 4.8a5 5 0 0 1-5 5.3c-3.1 0-5.2-2.5-5.2-6.4a9 9 0 0 1 2.5-6.7 8.1 8.1 0 0 1 4.8-2.3h1.4Zm-0.5 8.6a3.1 3.1 0 0 0-3.1-3.4 3.2 3.2 0 0 0-2.9 1.8 2.9 2.9 0 0 0-0.2 0.9c0 2.5 1.1 4.3 3.2 4.3S386.8 102.9 386.8 100.8Z"/><path d="M400.5 98.1c0 5.1-1.8 7.9-5.2 7.9s-4.9-2.8-4.9-7.7 2.2-7.8 5.2-7.8S400.5 93.3 400.5 98.1Zm-8.1 0.2c0 3.9 1.2 6.1 3.1 6.1s3-2.4 3-6.2 -0.9-6.1-3-6.1S392.4 94.2 392.4 98.3Z"/><path d="M238.6 479v-1.2l1.5-1.6c3.9-3.6 5.6-5.5 5.6-7.8a2.7 2.7 0 0 0-3-2.9 4.9 4.9 0 0 0-3.1 1.3l-0.7-1.5a7.2 7.2 0 0 1 4.3-1.5 4.2 4.2 0 0 1 4.5 4.4c0 2.7-2 5-5.1 8l-1.2 1.1h6.7V479Z"/><path d="M260.3 471.4c0 5.1-1.9 7.9-5.2 7.9s-4.9-2.8-4.9-7.7 2.1-7.8 5.1-7.8S260.3 466.6 260.3 471.4Zm-8.1 0.2c0 3.9 1.2 6.1 3 6.1s3.1-2.4 3.1-6.2 -1-6.1-3.1-6.1S252.2 467.5 252.2 471.6Z"/><line class="cls-4" x1="626.4" y1="361.8" x2="626.4" y2="429.7"/><polyline class="cls-5" points="322.1 362.4 210.2 474.3 235.7 474.3"/></svg>